{"glyphs":{"0":{"ha":859,"x_min":62,"x_max":798,"o":"m 228 450 q 292 193 228 274 q 431 126 342 126 q 570 193 517 126 q 632 450 632 275 q 570 707 632 625 q 431 774 517 774 q 292 707 342 774 q 228 450 228 628 m 143 126 q 62 450 62 246 q 143 774 62 654 q 431 921 241 921 q 717 774 619 921 q 798 450 798 654 q 717 126 798 246 q 431 -21 619 -21 q 143 126 241 -21 z "},"1":{"ha":522,"x_min":39,"x_max":421,"o":"m 421 900 l 421 0 l 257 0 l 257 616 l 39 616 l 39 730 q 197 781 133 732 q 277 900 263 829 l 421 900 z "},"2":{"ha":745,"x_min":46,"x_max":697,"o":"m 215 608 l 220 562 l 58 574 q 54 625 54 612 q 142 835 54 747 q 375 921 228 921 q 606 839 519 921 q 692 637 692 757 q 518 358 692 465 l 343 250 q 252 147 267 205 l 697 147 l 697 0 l 46 0 q 97 211 48 119 q 260 372 145 301 l 408 465 q 524 635 524 538 q 485 734 524 696 q 372 775 444 775 q 256 729 296 775 q 215 608 215 680 z "},"3":{"ha":765,"x_min":36,"x_max":717,"o":"m 304 408 l 228 532 l 476 754 l 66 754 l 66 900 l 692 900 l 692 761 l 447 547 q 636 471 553 545 q 717 273 717 398 q 625 65 717 151 q 379 -21 533 -21 q 138 62 229 -21 q 36 264 44 144 l 199 297 q 253 171 201 219 q 378 122 304 122 q 503 167 456 122 q 549 275 549 211 q 501 386 549 347 q 389 424 453 424 q 304 408 339 424 z "},"4":{"ha":815,"x_min":46,"x_max":794,"o":"m 479 197 l 46 197 l 46 378 l 429 900 l 643 900 l 643 345 l 794 345 l 794 197 l 643 197 l 643 0 l 479 0 l 479 197 m 196 345 l 479 345 l 479 732 l 196 345 z "},"5":{"ha":765,"x_min":45,"x_max":722,"o":"m 45 249 l 201 289 q 257 168 208 216 q 383 121 307 121 q 505 167 455 121 q 554 285 554 212 q 504 408 554 364 q 380 452 454 452 q 231 389 288 452 l 74 446 l 184 900 l 677 900 l 677 754 l 297 754 l 241 526 q 414 589 302 589 q 637 509 553 589 q 722 289 722 428 q 629 68 722 157 q 383 -22 535 -22 q 147 58 240 -22 q 45 249 53 138 z "},"6":{"ha":806,"x_min":64,"x_max":765,"o":"m 739 876 l 692 741 q 538 777 624 777 q 326 699 410 777 q 231 489 241 619 q 460 596 300 596 q 681 513 595 596 q 765 292 765 431 q 667 66 765 155 q 424 -21 569 -21 q 161 98 257 -21 q 64 397 64 217 q 199 779 64 638 q 547 921 334 921 q 739 876 669 921 m 249 289 q 301 168 249 214 q 424 121 353 121 q 549 167 496 121 q 599 289 599 213 q 549 411 599 365 q 424 457 496 457 q 300 411 350 457 q 249 289 249 366 z "},"7":{"ha":686,"x_min":7,"x_max":679,"o":"m 7 900 l 679 900 l 679 754 q 615 696 649 730 q 529 596 577 658 q 435 449 471 519 q 358 252 393 367 q 310 0 320 129 l 138 0 q 189 271 147 132 q 279 485 228 397 q 378 632 326 562 q 458 725 425 696 l 490 754 l 7 754 l 7 900 z "},"8":{"ha":785,"x_min":58,"x_max":726,"o":"m 392 525 q 500 564 459 527 q 541 657 541 600 q 500 747 541 709 q 392 785 458 785 q 285 747 324 785 q 244 657 244 709 q 285 564 244 600 q 392 525 323 527 m 269 160 q 392 119 314 119 q 517 160 470 119 q 561 257 561 200 q 517 355 561 315 q 392 396 470 396 q 269 355 314 396 q 224 257 224 316 q 269 160 224 199 m 636 53 q 392 -21 544 -21 q 150 53 240 -21 q 58 240 58 126 q 106 376 58 317 q 225 461 151 435 q 121 543 161 485 q 79 667 79 599 q 168 850 79 779 q 392 921 256 921 q 616 850 527 921 q 705 667 705 779 q 665 543 705 602 q 559 461 623 484 q 679 375 632 434 q 726 240 726 315 q 636 53 726 127 z "},"9":{"ha":808,"x_min":52,"x_max":746,"o":"m 77 31 l 122 167 q 283 125 186 125 q 498 201 422 125 q 582 408 576 279 q 498 334 555 363 q 363 304 441 304 q 143 387 234 304 q 52 607 52 469 q 149 833 52 745 q 390 921 246 921 q 644 812 542 921 q 746 500 746 705 q 629 115 746 250 q 285 -21 509 -21 q 77 31 153 -21 m 559 612 q 509 732 559 685 q 387 779 457 779 q 267 733 317 779 q 215 612 215 686 q 265 490 215 536 q 387 444 315 444 q 510 492 458 444 q 559 612 559 537 z "}," ":{"ha":344,"x_min":0,"x_max":0,"o":""},"!":{"ha":450,"x_min":123,"x_max":326,"o":"m 126 985 l 322 985 l 283 292 l 167 292 l 126 985 m 153 21 q 123 92 123 50 q 153 164 123 133 q 224 195 181 195 q 297 164 267 195 q 326 92 326 133 q 297 21 326 50 q 224 -9 267 -9 q 153 21 181 -9 z "},"\"":{"ha":541,"x_min":52,"x_max":490,"o":"m 52 821 q 78 890 52 864 q 146 917 104 917 q 214 890 187 917 q 240 821 240 864 q 236 789 240 801 l 174 532 l 117 532 l 56 789 q 52 821 52 809 m 301 821 q 328 890 301 864 q 396 917 354 917 q 464 890 437 917 q 490 821 490 864 q 486 789 490 801 l 424 532 l 367 532 l 306 789 q 301 821 301 812 z "},"#":{"ha":1027,"x_min":62,"x_max":965,"o":"m 304 555 l 131 555 l 131 676 l 330 676 l 379 900 l 511 900 l 463 676 l 652 676 l 700 900 l 833 900 l 785 676 l 965 676 l 965 555 l 758 555 l 714 349 l 897 349 l 897 228 l 689 228 l 640 0 l 507 0 l 555 228 l 367 228 l 318 0 l 186 0 l 235 228 l 62 228 l 62 349 l 260 349 l 304 555 m 625 555 l 436 555 l 392 349 l 581 349 l 625 555 z "},"$":{"ha":826,"x_min":65,"x_max":754,"o":"m 492 -16 l 492 -163 l 364 -163 l 364 -17 q 153 82 231 -1 q 65 264 75 163 l 221 307 q 262 193 227 240 q 364 127 299 142 l 364 383 l 339 389 q 164 479 228 414 q 100 644 100 544 q 175 825 100 748 q 364 917 248 903 l 364 1064 l 492 1064 l 492 916 q 667 832 604 897 q 745 684 729 762 l 595 636 q 492 768 578 734 l 492 519 l 504 517 q 690 419 628 489 q 754 253 754 349 q 685 78 754 155 q 492 -16 616 1 m 262 654 q 289 586 262 614 q 364 546 313 556 l 364 774 q 289 729 317 762 q 262 654 262 696 m 593 244 q 492 355 593 328 l 492 127 q 568 171 541 138 q 593 244 593 201 z "},"%":{"ha":1162,"x_min":68,"x_max":1104,"o":"m 227 762 q 197 689 197 733 q 227 615 197 644 q 296 586 254 586 q 366 615 338 586 q 393 689 393 645 q 366 762 393 732 q 296 790 338 790 q 227 762 254 790 m 135 532 q 68 689 68 595 q 136 847 68 783 q 296 913 205 913 q 457 847 386 913 q 524 689 524 783 q 457 532 524 595 q 294 467 387 467 q 135 532 203 467 m 807 283 q 778 210 778 254 q 807 136 778 165 q 876 107 834 107 q 946 136 919 107 q 974 210 974 166 q 946 283 974 254 q 876 311 918 311 q 807 283 835 311 m 715 53 q 648 210 648 117 q 717 368 648 304 q 876 433 785 433 q 1038 368 967 433 q 1104 210 1104 304 q 1038 53 1104 117 q 875 -12 967 -12 q 715 53 784 -12 m 979 900 l 339 0 l 193 0 l 835 900 l 979 900 z "},"&":{"ha":983,"x_min":94,"x_max":983,"o":"m 983 0 l 768 0 l 657 117 q 387 -18 532 -18 q 174 60 254 -18 q 94 240 94 137 q 136 387 94 327 q 265 513 180 450 l 275 519 l 258 538 q 146 754 146 652 q 227 937 146 869 q 410 1006 305 1006 q 603 939 526 1006 q 679 761 679 871 q 541 539 679 644 l 497 507 l 661 336 l 896 589 l 896 380 l 761 232 l 983 0 m 390 127 q 554 221 469 127 l 555 222 l 374 415 l 340 390 q 260 252 260 330 q 296 165 260 203 q 390 127 332 127 m 304 764 q 370 640 304 713 l 397 610 l 454 652 q 521 764 521 701 q 490 839 521 808 q 411 869 460 869 q 336 842 368 869 q 304 764 304 814 z "},"'":{"ha":292,"x_min":52,"x_max":240,"o":"m 52 821 q 78 890 52 864 q 146 917 104 917 q 214 890 187 917 q 240 821 240 864 q 236 789 240 801 l 174 532 l 117 532 l 56 789 q 52 821 52 809 z "},"(":{"ha":440,"x_min":66,"x_max":440,"o":"m 346 -233 q 66 444 66 46 q 346 1122 66 843 l 440 1036 q 203 444 203 775 q 440 -149 203 113 l 346 -233 z "},")":{"ha":440,"x_min":0,"x_max":374,"o":"m 94 1122 q 374 444 374 845 q 94 -233 374 44 l 0 -149 q 237 444 237 111 q 0 1036 237 777 l 94 1122 z "},"*":{"ha":622,"x_min":40,"x_max":582,"o":"m 245 985 l 376 985 l 376 804 l 542 860 l 582 741 l 414 685 l 522 543 l 421 468 l 310 614 l 205 469 l 103 545 l 208 685 l 40 741 l 81 860 l 245 803 l 245 985 z "},"+":{"ha":804,"x_min":72,"x_max":732,"o":"m 72 339 l 72 471 l 334 471 l 334 742 l 471 742 l 471 471 l 732 471 l 732 339 l 471 339 l 471 65 l 334 65 l 334 339 l 72 339 z "},",":{"ha":422,"x_min":90,"x_max":332,"o":"m 90 102 q 123 176 90 145 q 205 207 156 207 q 297 167 261 207 q 332 60 332 128 q 262 -144 332 -71 q 106 -229 190 -219 l 106 -147 q 192 -93 154 -137 q 229 3 227 -50 q 196 -4 214 -4 q 121 25 150 -4 q 90 102 90 54 z "},"-":{"ha":516,"x_min":62,"x_max":454,"o":"m 454 478 l 454 335 l 62 335 l 62 478 l 454 478 z "},".":{"ha":411,"x_min":93,"x_max":319,"o":"m 126 25 q 93 104 93 56 q 126 184 93 151 q 205 218 158 218 q 286 184 252 218 q 319 104 319 151 q 286 25 319 56 q 205 -8 253 -8 q 126 25 157 -8 z "},"/":{"ha":633,"x_min":0,"x_max":633,"o":"m 485 991 l 633 991 l 149 -7 l 0 -7 l 485 991 z "},":":{"ha":419,"x_min":97,"x_max":323,"o":"m 132 25 q 98 103 98 57 q 132 183 98 149 q 211 215 164 215 q 290 183 256 215 q 323 103 323 150 q 290 25 323 56 q 211 -8 257 -8 q 132 25 163 -8 m 97 572 q 131 653 97 619 q 210 685 163 685 q 289 653 255 685 q 322 572 322 620 q 289 494 322 526 q 210 461 256 461 q 131 494 162 461 q 97 572 97 526 z "},";":{"ha":426,"x_min":97,"x_max":328,"o":"m 98 96 q 131 168 98 136 q 208 197 162 197 q 294 158 261 197 q 328 57 328 119 q 261 -138 328 -69 q 113 -218 193 -208 l 113 -140 q 195 -87 157 -131 q 231 3 229 -50 q 199 -4 215 -4 q 126 24 154 -4 q 98 96 98 52 m 97 572 q 131 653 97 619 q 210 685 163 685 q 289 653 255 685 q 322 572 322 620 q 289 494 322 526 q 210 461 256 461 q 131 494 162 461 q 97 572 97 526 z "},"<":{"ha":680,"x_min":49,"x_max":635,"o":"m 635 46 l 49 339 l 49 469 l 635 764 l 635 610 l 215 406 l 635 200 l 635 46 z "},"=":{"ha":830,"x_min":86,"x_max":746,"o":"m 746 607 l 746 476 l 86 476 l 86 607 l 746 607 m 746 335 l 746 203 l 86 203 l 86 335 l 746 335 z "},">":{"ha":680,"x_min":46,"x_max":632,"o":"m 46 764 l 632 469 l 632 339 l 46 46 l 46 199 l 468 404 l 46 608 l 46 764 z "},"?":{"ha":722,"x_min":46,"x_max":676,"o":"m 410 292 l 271 292 q 268 345 268 339 q 380 554 268 473 l 444 600 q 510 721 510 649 q 471 821 510 779 q 359 861 430 861 q 244 814 286 861 q 203 703 203 766 q 211 640 203 663 l 54 652 q 46 715 46 682 q 129 918 46 829 q 359 1006 212 1006 q 591 924 505 1006 q 676 728 676 843 q 538 484 676 581 l 478 441 q 408 310 408 393 q 410 292 408 297 m 269 21 q 240 92 240 50 q 271 164 240 134 q 342 195 299 195 q 414 164 383 195 q 443 92 443 133 q 414 21 443 50 q 342 -9 383 -9 q 269 21 298 -9 z "},"@":{"ha":1147,"x_min":58,"x_max":1099,"o":"m 825 192 q 736 215 771 192 q 689 278 699 239 q 618 212 663 237 q 526 189 574 189 q 375 256 435 189 q 315 428 315 322 q 396 656 315 565 q 590 746 478 746 q 676 725 635 746 q 730 661 717 701 l 743 728 l 865 728 l 791 383 q 787 354 787 363 q 835 301 787 301 q 935 375 890 301 q 978 550 978 448 q 873 796 978 700 q 603 892 770 892 q 304 772 424 892 q 186 461 186 654 q 302 164 186 279 q 615 47 417 47 q 884 136 768 47 l 946 52 q 796 -33 888 -2 q 615 -65 702 -65 q 214 81 371 -65 q 58 461 58 225 q 216 852 58 701 q 602 1006 374 1006 q 957 876 813 1006 q 1099 551 1099 745 q 1018 296 1099 397 q 825 192 937 194 m 700 511 q 673 599 700 568 q 596 629 647 629 q 486 571 528 629 q 444 437 444 511 q 471 342 444 376 q 551 304 498 304 q 657 363 615 304 q 700 511 698 422 z "},"A":{"ha":987,"x_min":14,"x_max":974,"o":"m 974 0 l 791 0 l 699 248 l 282 248 l 191 0 l 14 0 l 397 985 l 590 985 l 974 0 m 640 401 l 490 804 l 340 401 l 640 401 z "},"B":{"ha":843,"x_min":118,"x_max":787,"o":"m 118 0 l 118 985 l 457 985 q 676 911 594 985 q 757 720 757 838 q 717 587 757 644 q 611 507 677 532 q 739 422 691 487 q 787 272 787 358 q 703 77 787 153 q 482 0 618 0 l 118 0 m 283 843 l 283 568 l 435 568 q 549 606 507 568 q 590 705 590 643 q 549 807 590 770 q 431 843 505 843 l 283 843 m 283 428 l 283 142 l 453 142 q 574 180 529 142 q 618 283 618 218 q 576 389 618 349 q 458 428 533 428 l 283 428 z "},"C":{"ha":1053,"x_min":58,"x_max":1002,"o":"m 555 -21 q 204 119 349 -21 q 58 492 58 259 q 205 864 58 723 q 554 1006 353 1006 q 847 916 731 1006 q 997 686 961 827 l 840 633 q 745 789 817 730 q 554 848 672 848 q 326 755 421 848 q 229 492 229 663 q 325 233 229 327 q 555 139 421 139 q 746 201 670 139 q 848 355 821 263 l 1002 306 q 850 74 966 169 q 555 -21 731 -21 z "},"D":{"ha":1002,"x_min":118,"x_max":946,"o":"m 285 832 l 285 153 l 460 153 q 685 240 595 153 q 772 490 772 326 q 685 745 772 655 q 461 832 597 832 l 285 832 m 465 0 l 118 0 l 118 985 l 467 985 q 811 852 675 985 q 946 490 946 722 q 810 131 946 263 q 465 0 675 0 z "},"E":{"ha":808,"x_min":118,"x_max":726,"o":"m 726 155 l 726 0 l 118 0 l 118 985 l 726 985 l 726 829 l 285 829 l 285 568 l 685 568 l 685 416 l 285 416 l 285 155 l 726 155 z "},"F":{"ha":773,"x_min":118,"x_max":730,"o":"m 285 397 l 285 0 l 118 0 l 118 985 l 730 985 l 730 828 l 285 828 l 285 551 l 685 551 l 685 397 l 285 397 z "},"G":{"ha":1075,"x_min":58,"x_max":999,"o":"m 991 498 l 991 0 l 857 0 l 844 125 q 730 22 808 64 q 543 -21 654 -21 q 200 119 342 -21 q 58 493 58 259 q 131 768 58 650 q 313 947 202 888 q 554 1006 424 1006 q 842 921 726 1006 q 999 705 958 835 l 842 646 q 741 793 814 736 q 554 851 665 851 q 325 758 422 851 q 228 493 228 665 q 322 228 228 322 q 553 132 416 132 q 757 203 686 132 q 835 353 827 273 l 510 353 l 510 498 l 991 498 z "},"H":{"ha":1033,"x_min":118,"x_max":916,"o":"m 916 985 l 916 0 l 747 0 l 747 421 l 285 421 l 285 0 l 118 0 l 118 985 l 285 985 l 285 578 l 747 578 l 747 985 l 916 985 z "},"I":{"ha":406,"x_min":118,"x_max":288,"o":"m 288 985 l 288 0 l 118 0 l 118 985 l 288 985 z "},"J":{"ha":760,"x_min":28,"x_max":653,"o":"m 28 297 l 28 361 l 191 395 l 191 302 q 232 178 191 219 q 342 136 273 136 q 447 179 408 136 q 486 296 486 220 l 486 985 l 653 985 l 653 300 q 567 72 653 166 q 343 -21 482 -21 q 114 66 199 -21 q 28 297 28 153 z "},"K":{"ha":951,"x_min":118,"x_max":932,"o":"m 932 0 l 722 0 l 415 427 l 285 283 l 285 0 l 118 0 l 118 985 l 285 985 l 285 513 l 708 985 l 928 985 l 529 550 l 932 0 z "},"L":{"ha":770,"x_min":118,"x_max":736,"o":"m 736 158 l 736 0 l 118 0 l 118 985 l 285 985 l 285 158 l 736 158 z "},"M":{"ha":1319,"x_min":118,"x_max":1202,"o":"m 1202 985 l 1202 0 l 1036 0 l 1036 725 l 729 0 l 585 0 l 281 722 l 281 0 l 118 0 l 118 985 l 340 985 l 660 233 l 975 985 l 1202 985 z "},"N":{"ha":1062,"x_min":118,"x_max":945,"o":"m 945 985 l 945 0 l 771 0 l 285 746 l 285 0 l 118 0 l 118 985 l 330 985 l 778 286 l 778 985 l 945 985 z "},"O":{"ha":1118,"x_min":58,"x_max":1060,"o":"m 558 848 q 326 755 423 848 q 229 493 229 663 q 326 232 229 325 q 558 138 425 138 q 791 232 693 138 q 889 493 889 326 q 791 755 889 662 q 558 848 694 848 m 131 218 q 58 493 58 336 q 131 768 58 650 q 314 946 201 886 q 558 1006 427 1006 q 803 946 690 1006 q 987 768 915 887 q 1060 493 1060 650 q 987 218 1060 336 q 803 39 913 97 q 558 -21 690 -21 q 314 39 427 -21 q 131 218 203 98 z "},"P":{"ha":836,"x_min":118,"x_max":798,"o":"m 285 838 l 285 532 l 458 532 q 583 574 537 532 q 628 684 628 614 q 583 796 628 753 q 458 838 538 838 l 285 838 m 484 385 l 285 385 l 285 0 l 118 0 l 118 985 l 484 985 q 711 900 625 985 q 798 685 798 814 q 711 469 798 553 q 484 385 625 385 z "},"Q":{"ha":1118,"x_min":58,"x_max":1060,"o":"m 131 218 q 58 493 58 336 q 131 768 58 650 q 314 946 201 886 q 558 1006 427 1006 q 803 946 690 1006 q 987 768 915 887 q 1060 493 1060 650 q 932 142 1060 284 l 1048 11 l 936 -85 l 815 47 q 558 -21 699 -21 q 314 39 427 -21 q 131 218 203 98 m 558 848 q 326 755 423 848 q 229 493 229 663 q 326 232 229 325 q 558 138 425 138 q 705 170 640 138 l 543 350 l 657 447 l 821 265 q 889 493 889 358 q 791 755 889 662 q 558 848 694 848 z "},"R":{"ha":863,"x_min":118,"x_max":804,"o":"m 804 0 l 615 0 l 408 389 l 286 389 l 286 0 l 118 0 l 118 985 l 496 985 q 720 900 635 985 q 804 686 804 815 q 745 505 804 580 q 582 406 686 431 l 804 0 m 286 838 l 286 536 l 465 536 q 589 578 541 536 q 635 686 635 618 q 589 798 635 755 q 465 838 541 838 l 286 838 z "},"S":{"ha":831,"x_min":47,"x_max":777,"o":"m 765 754 l 615 707 q 558 811 604 765 q 422 859 511 859 q 301 817 349 859 q 253 717 253 774 q 368 590 253 616 l 510 561 q 707 460 640 535 q 777 278 777 382 q 684 68 777 155 q 428 -21 591 -21 q 157 71 254 -21 q 47 282 60 159 l 203 326 q 269 186 211 242 q 428 129 328 129 q 561 168 513 129 q 607 265 607 206 q 572 350 607 315 q 475 399 538 385 l 336 428 q 154 524 220 452 q 86 704 86 595 q 184 917 86 827 q 421 1006 281 1006 q 661 930 578 1006 q 765 754 745 853 z "},"T":{"ha":843,"x_min":18,"x_max":825,"o":"m 825 985 l 825 828 l 504 828 l 504 0 l 338 0 l 338 828 l 18 828 l 18 985 l 825 985 z "},"U":{"ha":948,"x_min":107,"x_max":842,"o":"m 739 75 q 473 -21 635 -21 q 210 75 312 -21 q 107 343 107 172 l 107 985 l 272 985 l 272 353 q 326 195 272 251 q 473 138 379 138 q 623 193 571 138 q 675 353 675 250 l 675 985 l 842 985 l 842 343 q 739 75 842 172 z "},"V":{"ha":936,"x_min":14,"x_max":922,"o":"m 195 985 l 469 218 l 746 985 l 922 985 l 550 0 l 380 0 l 14 985 l 195 985 z "},"W":{"ha":1412,"x_min":18,"x_max":1394,"o":"m 794 985 l 1029 260 l 1222 985 l 1394 985 l 1118 0 l 946 0 l 707 745 l 468 0 l 297 0 l 18 985 l 193 985 l 390 265 l 621 985 l 794 985 z "},"X":{"ha":897,"x_min":18,"x_max":876,"o":"m 681 985 l 876 985 l 549 492 l 875 0 l 675 0 l 446 359 l 214 0 l 18 0 l 347 493 l 21 985 l 221 985 l 450 624 l 681 985 z "},"Y":{"ha":886,"x_min":14,"x_max":872,"o":"m 358 0 l 358 416 l 14 985 l 211 985 l 447 572 l 685 985 l 872 985 l 525 416 l 525 0 l 358 0 z "},"Z":{"ha":883,"x_min":58,"x_max":827,"o":"m 827 158 l 827 0 l 58 0 l 58 164 l 604 828 l 74 828 l 74 985 l 819 985 l 819 827 l 267 158 l 827 158 z "},"[":{"ha":422,"x_min":118,"x_max":415,"o":"m 415 -92 l 415 -218 l 118 -218 l 118 1109 l 415 1109 l 415 985 l 254 985 l 254 -92 l 415 -92 z "},"\\":{"ha":634,"x_min":0,"x_max":635,"o":"m 635 -7 l 484 -7 l 0 991 l 153 991 l 635 -7 z "},"]":{"ha":422,"x_min":7,"x_max":304,"o":"m 304 1109 l 304 -218 l 7 -218 l 7 -92 l 168 -92 l 168 985 l 7 985 l 7 1109 l 304 1109 z "},"^":{"ha":730,"x_min":28,"x_max":703,"o":"m 431 986 l 703 489 l 546 489 l 367 828 l 186 489 l 28 489 l 300 986 l 431 986 z "},"_":{"ha":737,"x_min":14,"x_max":724,"o":"m 724 0 l 724 -134 l 14 -134 l 14 0 l 724 0 z "},"`":{"ha":395,"x_min":40,"x_max":355,"o":"m 355 761 l 224 761 l 40 966 l 233 966 l 355 761 z "},"a":{"ha":739,"x_min":62,"x_max":657,"o":"m 62 183 q 119 322 62 269 q 267 387 174 373 l 440 414 q 490 463 490 420 q 458 538 490 508 q 363 566 427 566 q 265 532 301 566 q 224 443 230 496 l 77 476 q 164 633 87 570 q 361 697 241 697 q 579 627 509 697 q 648 444 648 555 l 648 109 q 657 0 648 45 l 507 0 q 500 86 500 25 q 292 -21 432 -21 q 126 40 189 -21 q 62 183 62 100 m 322 106 q 444 147 397 106 q 490 281 490 187 l 490 311 l 314 285 q 224 193 224 271 q 250 132 224 157 q 322 106 277 106 z "},"b":{"ha":838,"x_min":104,"x_max":787,"o":"m 261 90 l 261 0 l 104 0 l 104 1006 l 262 1006 l 262 593 q 345 665 287 635 q 475 694 400 694 q 705 596 621 694 q 787 342 787 496 q 701 85 787 185 q 469 -17 614 -17 q 261 90 326 -17 m 575 184 q 625 340 625 241 q 575 496 625 439 q 443 551 526 551 q 313 496 364 551 q 261 340 261 440 q 313 184 261 242 q 443 126 365 126 q 575 184 523 126 z "},"c":{"ha":751,"x_min":52,"x_max":713,"o":"m 399 549 q 267 493 320 549 q 212 339 212 437 q 268 183 212 239 q 401 126 323 126 q 515 165 472 126 q 571 252 556 203 l 713 200 q 606 45 685 109 q 401 -21 522 -21 q 153 82 254 -21 q 52 339 52 183 q 151 596 52 494 q 397 697 248 697 q 604 632 522 697 q 707 475 683 569 l 562 422 q 510 513 547 477 q 399 549 470 549 z "},"d":{"ha":836,"x_min":52,"x_max":736,"o":"m 212 340 q 262 184 212 243 q 395 125 312 125 q 524 184 474 125 q 574 342 574 245 q 525 494 574 437 q 396 551 476 551 q 264 494 317 551 q 212 340 212 437 m 572 1006 l 729 1006 l 729 123 q 736 0 729 62 l 582 0 q 575 87 575 44 q 497 12 550 42 q 376 -17 446 -17 q 142 85 231 -17 q 52 340 52 187 q 143 591 52 490 q 374 694 234 694 q 504 665 454 694 q 572 597 556 633 l 572 1006 z "},"e":{"ha":761,"x_min":52,"x_max":711,"o":"m 216 412 l 549 412 q 504 519 547 475 q 382 562 461 562 q 265 518 309 562 q 216 412 220 471 m 567 236 l 703 193 q 595 40 673 99 q 397 -21 512 -21 q 153 78 254 -21 q 52 342 52 175 q 150 597 52 497 q 380 697 248 697 q 624 603 536 697 q 711 346 711 507 q 707 294 711 304 l 212 294 q 269 168 214 219 q 397 118 321 118 q 567 236 528 118 z "},"f":{"ha":486,"x_min":24,"x_max":463,"o":"m 404 868 q 335 846 363 868 q 304 765 304 823 l 304 676 l 461 676 l 461 536 l 304 536 l 304 0 l 142 0 l 142 536 l 24 536 l 24 676 l 142 676 l 142 770 q 207 947 142 882 q 378 1013 272 1013 q 463 999 436 1013 l 463 861 q 404 868 437 868 z "},"g":{"ha":818,"x_min":56,"x_max":725,"o":"m 56 -37 l 204 1 q 260 -103 212 -64 q 374 -144 305 -144 q 566 58 566 -144 l 566 129 q 490 58 543 86 q 370 31 438 31 q 146 123 233 31 q 57 359 57 216 q 144 593 57 497 q 370 689 233 689 q 570 590 517 689 l 570 676 l 725 676 l 725 64 q 640 -184 725 -87 q 378 -285 554 -285 q 158 -214 248 -285 q 56 -37 70 -144 m 396 168 q 522 221 473 168 q 570 359 570 273 q 521 498 570 446 q 396 550 473 550 q 269 498 317 550 q 220 359 220 447 q 268 221 220 273 q 396 168 317 168 z "},"h":{"ha":797,"x_min":104,"x_max":705,"o":"m 265 397 l 265 0 l 104 0 l 104 1006 l 265 1006 l 265 611 q 458 696 329 696 q 642 621 578 696 q 705 428 705 546 l 705 0 l 545 0 l 545 400 q 511 510 545 469 q 406 550 477 550 q 306 507 340 550 q 265 397 267 463 z "},"i":{"ha":368,"x_min":79,"x_max":289,"o":"m 264 676 l 264 0 l 104 0 l 104 676 l 264 676 m 183 810 q 110 840 140 810 q 79 914 79 871 q 110 989 79 958 q 183 1019 140 1019 q 258 989 228 1019 q 289 914 289 958 q 258 840 289 871 q 183 810 228 810 z "},"j":{"ha":369,"x_min":-28,"x_max":289,"o":"m 104 -56 l 104 676 l 265 676 l 265 -68 q 211 -224 265 -163 q 64 -285 156 -285 q -28 -272 5 -285 l -28 -139 q 21 -143 -7 -143 q 104 -56 104 -143 m 183 811 q 110 842 140 811 q 79 916 79 872 q 110 990 79 960 q 183 1021 140 1021 q 258 990 228 1021 q 289 916 289 960 q 258 842 289 872 q 183 811 228 811 z "},"k":{"ha":755,"x_min":104,"x_max":743,"o":"m 524 676 l 737 676 l 460 390 l 743 0 l 546 0 l 347 277 l 264 189 l 264 0 l 104 0 l 104 1006 l 264 1006 l 264 403 l 524 676 z "},"l":{"ha":369,"x_min":104,"x_max":265,"o":"m 265 1006 l 265 0 l 104 0 l 104 1006 l 265 1006 z "},"m":{"ha":1212,"x_min":104,"x_max":1120,"o":"m 264 401 l 264 0 l 104 0 l 104 676 l 258 676 l 258 590 q 343 668 286 640 q 458 696 400 696 q 581 665 528 696 q 661 576 634 634 q 880 696 732 696 q 1050 631 979 696 q 1120 439 1120 566 l 1120 0 l 964 0 l 964 412 q 932 514 964 474 q 833 551 899 551 q 732 509 770 551 q 693 401 693 466 l 693 0 l 534 0 l 534 412 q 503 514 534 474 q 404 551 469 551 q 302 510 340 551 q 264 401 264 467 z "},"n":{"ha":797,"x_min":104,"x_max":705,"o":"m 265 390 l 265 0 l 104 0 l 104 676 l 261 676 l 261 586 q 347 669 292 642 q 461 696 397 696 q 643 621 581 696 q 705 428 705 545 l 705 0 l 545 0 l 545 400 q 511 510 545 469 q 406 550 477 550 q 302 505 339 550 q 265 390 265 460 z "},"o":{"ha":804,"x_min":52,"x_max":753,"o":"m 268 182 q 401 123 322 123 q 536 180 479 123 q 590 339 590 236 q 536 496 590 440 q 401 551 481 551 q 268 496 321 551 q 212 339 212 440 q 268 182 212 237 m 401 697 q 654 596 555 697 q 753 339 753 494 q 654 82 753 184 q 401 -21 553 -21 q 151 82 250 -21 q 52 339 52 184 q 151 596 52 494 q 401 697 248 697 z "},"p":{"ha":838,"x_min":104,"x_max":787,"o":"m 264 77 l 264 -264 l 104 -264 l 104 676 l 260 676 l 260 585 q 343 661 287 629 q 475 692 397 692 q 704 593 619 692 q 787 339 787 493 q 700 85 787 184 q 469 -17 612 -17 q 346 9 398 -17 q 264 77 291 37 m 627 339 q 576 492 627 433 q 444 549 526 549 q 314 492 365 549 q 262 339 262 434 q 314 184 262 242 q 444 126 364 126 q 576 184 524 126 q 627 339 627 243 z "},"q":{"ha":827,"x_min":52,"x_max":733,"o":"m 733 676 l 733 -264 l 575 -264 l 575 81 q 376 -17 521 -17 q 143 86 234 -17 q 52 340 52 188 q 140 591 52 490 q 372 693 228 693 q 505 661 453 693 q 579 586 559 628 l 579 676 l 733 676 m 264 493 q 214 340 214 437 q 265 184 214 244 q 395 125 315 125 q 525 184 473 125 q 576 340 576 244 q 526 493 576 437 q 395 550 473 550 q 264 493 315 550 z "},"r":{"ha":528,"x_min":104,"x_max":500,"o":"m 500 681 l 500 517 q 447 521 472 521 q 265 322 265 521 l 265 0 l 104 0 l 104 676 l 261 676 l 261 568 q 338 654 284 622 q 457 685 388 685 q 500 681 479 685 z "},"s":{"ha":634,"x_min":45,"x_max":579,"o":"m 45 183 l 184 222 q 225 140 189 175 q 322 107 260 107 q 397 129 372 107 q 424 184 424 151 q 345 260 424 243 l 244 282 q 110 354 160 300 q 62 479 62 406 q 135 633 62 570 q 311 697 208 697 q 429 677 374 697 q 510 628 481 659 q 553 567 540 594 q 572 509 569 533 l 436 469 q 401 541 430 510 q 311 571 371 571 q 241 549 268 571 q 214 493 214 525 q 282 422 214 437 l 385 401 q 529 326 478 381 q 579 196 579 272 q 513 46 579 110 q 323 -21 444 -21 q 200 0 256 -21 q 114 54 146 20 q 65 119 81 87 q 45 183 47 151 z "},"t":{"ha":507,"x_min":24,"x_max":450,"o":"m 163 884 l 309 884 l 309 676 l 449 676 l 449 533 l 309 533 l 309 220 q 329 155 309 174 q 395 135 349 135 q 450 140 426 135 l 450 7 q 351 -8 413 -8 q 203 46 257 -8 q 149 193 149 98 l 149 533 l 24 533 l 24 676 l 58 676 q 136 705 109 676 q 163 782 163 734 l 163 884 z "},"u":{"ha":801,"x_min":97,"x_max":704,"o":"m 545 75 q 468 5 521 31 q 353 -20 415 -20 q 167 57 235 -20 q 97 250 97 135 l 97 676 l 258 676 l 258 279 q 292 168 258 212 q 395 125 325 125 q 500 167 462 125 q 536 277 536 210 l 536 676 l 697 676 l 697 123 q 704 0 697 69 l 550 0 q 545 75 545 28 z "},"v":{"ha":729,"x_min":14,"x_max":715,"o":"m 546 676 l 715 676 l 450 0 l 289 0 l 14 676 l 192 676 l 371 193 l 546 676 z "},"w":{"ha":1131,"x_min":18,"x_max":1112,"o":"m 328 208 l 488 676 l 654 676 l 814 208 l 949 676 l 1112 676 l 896 0 l 734 0 l 567 486 l 403 0 l 237 0 l 18 676 l 191 676 l 328 208 z "},"x":{"ha":712,"x_min":16,"x_max":699,"o":"m 200 0 l 16 0 l 261 342 l 20 676 l 211 676 q 288 567 215 669 q 359 460 299 550 l 507 676 l 690 676 l 453 345 l 699 0 l 510 0 l 353 227 l 347 218 q 333 196 342 210 q 313 167 323 182 q 240 61 264 94 q 200 0 213 22 z "},"y":{"ha":754,"x_min":11,"x_max":741,"o":"m 741 676 l 310 -273 l 138 -273 l 300 81 l 11 676 l 193 676 l 387 249 l 570 676 l 741 676 z "},"z":{"ha":658,"x_min":53,"x_max":606,"o":"m 606 142 l 606 0 l 53 0 l 53 140 l 396 534 l 60 534 l 60 676 l 599 676 l 599 541 l 252 142 l 606 142 z "},"{":{"ha":507,"x_min":62,"x_max":500,"o":"m 62 379 l 62 518 q 168 551 129 518 q 208 652 208 583 l 208 846 q 277 1044 208 978 q 468 1109 345 1109 l 500 1109 l 500 986 l 469 986 q 375 954 407 986 q 345 851 345 924 l 345 621 q 307 509 345 552 q 203 449 268 463 q 307 387 268 435 q 345 275 345 342 l 345 45 q 375 -57 345 -26 q 469 -89 407 -89 l 500 -89 l 500 -212 l 468 -212 q 277 -146 343 -212 q 208 52 208 -82 l 208 244 q 168 347 208 313 q 62 379 128 379 z "},"|":{"ha":372,"x_min":118,"x_max":254,"o":"m 254 1109 l 254 -212 l 118 -212 l 118 1109 l 254 1109 z "},"}":{"ha":507,"x_min":7,"x_max":444,"o":"m 444 518 l 444 379 q 339 347 379 379 q 298 244 298 313 l 298 52 q 232 -146 298 -82 q 39 -212 163 -212 l 7 -212 l 7 -89 l 37 -89 q 132 -57 100 -89 q 163 45 163 -26 l 163 275 q 200 387 163 342 q 304 449 239 435 q 200 509 239 463 q 163 621 163 552 l 163 851 q 132 954 163 924 q 37 986 100 986 l 7 986 l 7 1109 l 39 1109 q 232 1044 161 1109 q 298 846 298 978 l 298 652 q 339 551 298 584 q 444 518 378 518 z "},"~":{"ha":801,"x_min":41,"x_max":760,"o":"m 399 328 l 334 363 q 261 382 292 382 q 134 307 189 382 l 41 380 q 262 519 121 519 q 403 482 336 519 l 467 447 q 543 427 504 427 q 668 500 620 427 l 760 427 q 541 289 682 289 q 399 328 470 289 z "}," ":{"ha":344,"x_min":0,"x_max":0,"o":""},"¡":{"ha":404,"x_min":100,"x_max":304,"o":"m 144 396 l 260 396 l 300 -296 l 103 -296 l 144 396 m 100 596 q 131 668 100 637 q 201 697 160 697 q 273 668 242 697 q 304 596 304 637 q 273 525 304 554 q 201 494 243 494 q 131 524 160 494 q 100 596 100 553 z "},"¢":{"ha":758,"x_min":62,"x_max":696,"o":"m 452 121 l 452 0 l 325 0 l 325 125 q 136 239 210 148 q 62 452 62 329 q 136 664 62 574 q 325 777 209 753 l 325 901 l 452 901 l 452 779 q 610 707 545 766 q 690 578 673 648 l 551 529 q 452 637 528 614 l 452 261 q 522 306 493 273 q 559 371 550 338 l 696 322 q 610 192 672 248 q 452 121 547 135 m 214 452 q 244 336 214 382 q 325 268 274 288 l 325 632 q 214 452 214 588 z "},"£":{"ha":823,"x_min":86,"x_max":793,"o":"m 93 379 l 93 511 l 182 511 q 150 657 150 585 q 231 844 150 768 q 436 921 311 921 q 653 844 585 921 q 726 667 722 767 l 574 642 q 536 746 572 711 q 439 782 500 782 q 347 749 385 782 q 310 654 310 713 q 347 511 310 600 l 608 511 l 608 379 l 387 379 q 390 346 390 348 q 275 143 390 207 l 521 143 q 611 180 580 143 q 643 273 643 218 l 793 257 q 728 72 793 146 q 553 0 662 0 l 86 0 l 86 144 q 195 221 155 172 q 235 329 235 269 q 229 379 235 349 l 93 379 z "},"¤":{"ha":812,"x_min":54,"x_max":757,"o":"m 111 336 q 157 494 111 422 l 54 599 l 154 697 l 257 591 q 410 633 329 633 q 557 595 492 633 l 659 697 l 757 599 l 660 498 q 708 336 708 425 q 661 175 708 247 l 757 78 l 660 -20 l 561 81 q 410 40 490 40 q 254 83 325 40 l 153 -20 l 54 78 l 155 180 q 111 336 111 250 m 410 498 q 375 498 410 498 q 294 453 340 498 q 249 336 249 408 q 294 220 249 265 q 410 174 340 174 q 525 220 479 174 q 570 336 570 267 q 525 453 570 406 q 410 498 479 498 z "},"¥":{"ha":833,"x_min":32,"x_max":800,"o":"m 743 317 l 743 200 l 501 200 l 501 0 l 340 0 l 340 200 l 103 200 l 103 317 l 340 317 l 340 419 l 103 419 l 103 536 l 257 536 l 32 900 l 220 900 l 422 551 l 619 900 l 800 900 l 581 536 l 743 536 l 743 419 l 501 419 l 501 317 l 743 317 z "},"¦":{"ha":372,"x_min":118,"x_max":254,"o":"m 118 555 l 118 1109 l 254 1109 l 254 555 l 118 555 m 118 -214 l 118 340 l 254 340 l 254 -214 l 118 -214 z "},"§":{"ha":786,"x_min":106,"x_max":682,"o":"m 677 342 q 646 237 677 283 q 567 168 612 191 q 681 -32 681 90 q 595 -221 681 -147 q 390 -294 509 -294 q 183 -224 258 -294 q 106 -35 108 -153 l 257 -7 q 292 -118 257 -79 q 392 -158 328 -158 q 482 -127 448 -158 q 517 -46 517 -99 q 447 57 517 21 l 304 131 q 161 232 210 179 q 110 371 110 283 q 143 475 110 429 q 221 545 175 521 q 107 745 107 621 q 193 933 107 859 q 397 1006 278 1006 q 604 933 528 1006 q 682 747 680 859 l 529 720 q 494 831 529 792 q 396 869 460 869 q 306 839 340 869 q 269 757 269 806 q 340 656 269 692 l 482 582 q 627 481 571 536 q 677 342 677 428 m 454 418 l 313 493 q 260 400 260 456 q 332 294 260 331 l 472 220 q 526 313 526 258 q 454 418 526 379 z "},"¨":{"ha":545,"x_min":45,"x_max":501,"o":"m 45 868 q 71 932 45 906 q 134 958 95 958 q 199 932 172 958 q 225 868 225 905 q 199 804 225 829 q 134 778 172 778 q 71 804 95 778 q 45 868 45 828 m 322 868 q 349 932 322 905 q 411 958 373 958 q 475 932 448 958 q 501 868 501 905 q 475 804 501 829 q 411 778 448 778 q 349 804 373 778 q 322 868 322 829 z "},"©":{"ha":1136,"x_min":58,"x_max":1078,"o":"m 286 783 q 172 493 172 665 q 286 203 172 321 q 567 85 400 85 q 847 203 733 85 q 961 493 961 321 q 847 783 961 665 q 567 900 732 900 q 286 783 401 900 m 207 131 q 58 493 58 281 q 207 856 58 705 q 567 1006 355 1006 q 928 856 778 1006 q 1078 493 1078 703 q 928 131 1078 281 q 567 -21 779 -21 q 207 131 354 -21 m 572 657 q 468 614 511 657 q 425 493 425 571 q 468 371 425 414 q 574 326 513 326 q 663 355 629 326 q 707 424 695 386 l 818 383 q 734 261 798 315 q 574 210 671 210 q 378 292 458 210 q 298 493 298 373 q 378 696 298 614 q 571 775 455 775 q 733 724 671 775 q 814 600 797 669 l 700 558 q 660 629 689 602 q 572 657 628 657 z "},"ª":{"ha":590,"x_min":82,"x_max":507,"o":"m 82 554 q 122 653 82 615 q 225 697 162 689 l 345 715 q 380 749 380 722 q 358 796 380 779 q 296 814 336 814 q 232 791 254 814 q 204 734 206 768 l 92 758 q 153 869 98 821 q 296 916 207 916 q 452 865 401 916 q 501 734 501 814 l 501 500 q 507 424 501 448 l 393 424 q 387 482 387 440 q 245 410 342 410 q 127 453 171 410 q 82 554 82 494 m 272 504 q 350 532 318 504 q 380 618 380 558 l 380 639 l 267 623 q 207 561 207 612 q 224 521 207 538 q 272 504 241 504 z "},"«":{"ha":694,"x_min":39,"x_max":669,"o":"m 196 406 l 380 139 l 227 139 l 39 407 l 228 676 l 382 676 l 196 406 m 484 406 l 668 139 l 514 139 l 326 407 l 515 676 l 669 676 l 484 406 z "},"¬":{"ha":809,"x_min":62,"x_max":726,"o":"m 726 603 l 726 197 l 586 197 l 586 468 l 62 468 l 62 603 l 726 603 z "},"­":{"ha":516,"x_min":62,"x_max":454,"o":"m 454 478 l 454 335 l 62 335 l 62 478 l 454 478 z "},"®":{"ha":1136,"x_min":58,"x_max":1078,"o":"m 207 131 q 58 493 58 281 q 207 856 58 705 q 567 1006 355 1006 q 928 856 778 1006 q 1078 493 1078 703 q 928 131 1078 281 q 567 -21 779 -21 q 207 131 354 -21 m 286 783 q 172 493 172 665 q 286 203 172 321 q 567 85 400 85 q 847 203 733 85 q 961 493 961 321 q 847 783 961 665 q 567 900 732 900 q 286 783 401 900 m 790 218 l 654 218 l 549 418 l 509 418 l 509 218 l 389 218 l 389 775 l 596 775 q 732 724 676 775 q 786 597 786 671 q 755 497 786 539 q 672 433 722 451 l 790 218 m 509 673 l 509 519 l 576 519 q 642 541 617 519 q 664 596 664 558 q 642 653 664 633 q 576 673 618 673 l 509 673 z "},"¯":{"ha":469,"x_min":41,"x_max":428,"o":"m 428 926 l 428 802 l 41 802 l 41 926 l 428 926 z "},"°":{"ha":516,"x_min":31,"x_max":486,"o":"m 189 768 q 160 694 160 739 q 189 621 160 650 q 258 591 216 591 q 328 621 300 591 q 355 694 355 650 q 328 768 355 739 q 258 796 300 796 q 189 768 217 796 m 97 538 q 31 694 31 602 q 98 852 31 789 q 258 918 168 918 q 419 852 348 918 q 486 694 486 788 q 419 538 486 602 q 257 472 348 472 q 97 538 166 472 z "},"±":{"ha":806,"x_min":87,"x_max":720,"o":"m 87 432 l 87 562 l 335 562 l 335 742 l 472 742 l 472 562 l 720 562 l 720 432 l 472 432 l 472 254 l 335 254 l 335 432 l 87 432 m 87 65 l 87 199 l 720 199 l 720 65 l 87 65 z "},"²":{"ha":544,"x_min":78,"x_max":468,"o":"m 203 787 l 86 786 q 82 828 82 806 q 134 947 82 900 q 273 996 186 996 q 412 949 361 996 q 464 831 464 901 q 359 676 464 739 l 261 616 q 233 582 237 600 l 468 582 l 468 476 l 78 476 l 78 493 q 199 704 78 631 l 282 754 q 339 832 339 788 q 321 875 339 857 q 271 893 302 893 q 218 873 238 893 q 199 821 199 852 q 203 787 199 804 z "},"³":{"ha":572,"x_min":77,"x_max":494,"o":"m 77 616 l 187 650 q 220 593 193 616 q 283 570 247 570 q 345 589 320 570 q 368 637 368 607 q 345 692 368 673 q 283 708 319 708 q 240 700 260 708 l 196 785 l 322 880 l 94 880 l 94 985 l 482 985 l 482 885 l 351 789 q 456 742 415 783 q 494 636 494 703 q 437 515 494 564 q 285 465 379 465 q 143 510 198 465 q 77 616 87 554 z "},"´":{"ha":397,"x_min":41,"x_max":355,"o":"m 165 966 l 355 966 l 174 761 l 41 761 l 165 966 z "},"µ":{"ha":811,"x_min":104,"x_max":711,"o":"m 551 75 q 475 5 528 31 q 359 -20 422 -20 q 265 -3 309 -20 l 265 -264 l 104 -264 l 104 676 l 265 676 l 265 279 q 298 168 265 212 q 401 125 332 125 q 507 167 469 125 q 543 277 543 209 l 543 676 l 704 676 l 704 123 q 711 0 704 76 l 557 0 q 551 75 551 28 z "},"¶":{"ha":900,"x_min":41,"x_max":872,"o":"m 606 856 l 473 856 l 473 -273 l 342 -273 l 342 431 l 318 431 q 123 510 205 431 q 41 701 41 588 q 135 909 41 832 q 364 985 227 985 l 872 985 l 872 856 l 737 856 l 737 -273 l 606 -273 l 606 856 z "},"·":{"ha":394,"x_min":90,"x_max":309,"o":"m 90 414 q 122 490 90 458 q 199 522 154 522 q 277 490 245 522 q 309 414 309 458 q 277 338 309 370 q 199 307 246 307 q 122 338 153 307 q 90 414 90 370 z "},"¸":{"ha":411,"x_min":39,"x_max":370,"o":"m 163 -146 l 114 -86 l 180 18 l 289 18 l 235 -65 q 332 -98 294 -67 q 370 -182 370 -130 q 328 -272 370 -236 q 199 -310 283 -310 q 104 -290 151 -310 q 39 -243 65 -274 l 96 -174 q 197 -222 144 -222 q 258 -180 258 -222 q 243 -150 258 -163 q 201 -139 228 -139 q 163 -146 183 -139 z "},"¹":{"ha":414,"x_min":60,"x_max":310,"o":"m 310 985 l 310 476 l 183 476 l 183 800 l 60 800 l 60 884 q 151 916 117 886 q 196 985 188 946 l 310 985 z "},"º":{"ha":671,"x_min":86,"x_max":586,"o":"m 336 522 q 425 559 390 522 q 460 663 460 594 q 425 765 460 730 q 336 802 389 802 q 249 765 286 802 q 212 663 212 728 q 249 559 212 598 q 336 522 284 522 m 157 844 q 336 916 228 916 q 515 844 444 916 q 586 663 586 772 q 515 482 586 553 q 336 410 445 410 q 157 482 227 410 q 86 663 86 553 q 157 844 86 772 z "},"»":{"ha":694,"x_min":25,"x_max":656,"o":"m 656 407 l 468 139 l 314 139 l 498 406 l 313 676 l 467 676 l 656 407 m 368 407 l 180 139 l 26 139 l 211 406 l 25 676 l 179 676 l 368 407 z "},"¼":{"ha":1105,"x_min":69,"x_max":1042,"o":"m 319 900 l 319 392 l 193 392 l 193 715 l 69 715 l 69 799 q 161 831 127 801 q 205 900 197 861 l 319 900 m 831 98 l 579 98 l 579 221 l 818 509 l 956 509 l 956 200 l 1042 200 l 1042 98 l 956 98 l 956 0 l 831 0 l 831 98 m 688 200 l 831 200 l 831 374 l 688 200 m 911 900 l 271 0 l 125 0 l 766 900 l 911 900 z "},"½":{"ha":1118,"x_min":69,"x_max":1053,"o":"m 319 900 l 319 392 l 193 392 l 193 715 l 69 715 l 69 799 q 161 831 127 801 q 205 900 197 861 l 319 900 m 909 900 l 269 0 l 123 0 l 765 900 l 909 900 m 787 311 l 671 310 q 667 351 667 330 q 718 471 667 423 q 859 519 771 519 q 997 472 945 519 q 1048 354 1048 425 q 945 200 1048 262 l 846 140 q 818 106 822 124 l 1053 106 l 1053 0 l 663 0 l 663 17 q 783 228 663 155 l 867 278 q 924 355 924 312 q 905 399 924 380 q 856 416 888 416 q 803 397 822 416 q 783 345 783 376 q 787 311 783 328 z "},"¾":{"ha":1206,"x_min":72,"x_max":1145,"o":"m 72 532 l 183 566 q 215 509 189 531 q 279 485 243 485 q 340 504 316 485 q 364 553 364 522 q 340 607 364 589 q 279 624 314 624 q 236 615 258 624 l 192 700 l 318 796 l 90 796 l 90 900 l 478 900 l 478 800 l 347 704 q 452 657 411 698 q 490 551 490 618 q 433 431 490 479 q 281 380 375 380 q 139 425 194 380 q 72 532 82 470 m 933 98 l 682 98 l 682 221 l 921 509 l 1059 509 l 1059 200 l 1145 200 l 1145 98 l 1059 98 l 1059 0 l 933 0 l 933 98 m 790 200 l 933 200 l 933 374 l 790 200 m 1029 900 l 389 0 l 243 0 l 885 900 l 1029 900 z "},"¿":{"ha":676,"x_min":24,"x_max":653,"o":"m 289 383 l 289 397 l 427 397 q 431 345 431 372 q 319 136 431 216 l 256 90 q 191 -32 191 41 q 229 -131 191 -92 q 340 -171 269 -171 q 456 -123 416 -171 q 496 -9 496 -75 q 488 53 496 27 l 646 36 q 653 -28 653 5 q 571 -229 653 -141 q 340 -317 488 -317 q 109 -233 194 -317 q 24 -39 24 -153 q 161 205 24 108 l 221 248 q 289 383 289 294 m 285 525 q 256 596 256 554 q 285 668 256 637 q 357 697 314 697 q 429 668 398 697 q 458 596 458 637 q 429 525 458 554 q 357 494 399 494 q 285 525 313 494 z "},"À":{"ha":987,"x_min":14,"x_max":974,"o":"m 974 0 l 791 0 l 699 248 l 282 248 l 191 0 l 14 0 l 397 985 l 590 985 l 974 0 m 640 401 l 490 804 l 340 401 l 640 401 m 575 1054 l 425 1054 l 227 1226 l 432 1226 l 575 1054 z "},"Á":{"ha":987,"x_min":14,"x_max":974,"o":"m 974 0 l 791 0 l 699 248 l 282 248 l 191 0 l 14 0 l 397 985 l 590 985 l 974 0 m 640 401 l 490 804 l 340 401 l 640 401 m 551 1226 l 758 1226 l 561 1054 l 410 1054 l 551 1226 z "},"Â":{"ha":987,"x_min":14,"x_max":974,"o":"m 974 0 l 791 0 l 699 248 l 282 248 l 191 0 l 14 0 l 397 985 l 590 985 l 974 0 m 640 401 l 490 804 l 340 401 l 640 401 m 486 1143 l 386 1054 l 237 1054 l 399 1226 l 578 1226 l 743 1054 l 590 1054 l 486 1143 z "},"Ã":{"ha":987,"x_min":14,"x_max":974,"o":"m 974 0 l 791 0 l 699 248 l 282 248 l 191 0 l 14 0 l 397 985 l 590 985 l 974 0 m 640 401 l 490 804 l 340 401 l 640 401 m 615 1231 l 718 1231 l 718 1198 q 679 1086 718 1126 q 581 1046 638 1046 q 479 1078 532 1046 l 465 1088 q 403 1111 428 1111 q 374 1100 387 1111 q 361 1065 361 1087 l 361 1051 l 257 1051 l 257 1082 q 296 1196 257 1157 q 396 1235 335 1235 q 498 1203 446 1235 l 513 1194 q 572 1171 555 1171 q 615 1217 615 1171 l 615 1231 z "},"Ä":{"ha":987,"x_min":14,"x_max":974,"o":"m 278 1048 q 212 1075 239 1048 q 186 1140 186 1101 q 212 1207 186 1181 q 278 1234 239 1234 q 345 1207 318 1234 q 371 1140 371 1181 q 345 1075 371 1101 q 278 1048 318 1048 m 639 1075 q 612 1140 612 1101 q 639 1207 612 1181 q 703 1234 663 1234 q 770 1207 743 1234 q 796 1140 796 1181 q 770 1075 796 1101 q 703 1048 743 1048 q 639 1075 663 1048 m 974 0 l 791 0 l 699 248 l 282 248 l 191 0 l 14 0 l 397 985 l 590 985 l 974 0 m 640 401 l 490 804 l 340 401 l 640 401 z "},"Å":{"ha":987,"x_min":14,"x_max":974,"o":"m 640 401 l 490 804 l 340 401 l 640 401 m 441 1004 q 490 985 461 985 q 541 1004 519 985 q 559 1054 559 1023 q 541 1103 559 1084 q 490 1122 519 1122 q 441 1103 461 1122 q 421 1054 421 1084 q 441 1004 421 1023 m 671 1054 q 612 925 671 977 l 974 0 l 791 0 l 699 248 l 282 248 l 191 0 l 14 0 l 372 921 q 311 1054 311 974 q 364 1179 311 1126 q 490 1229 416 1229 q 618 1179 564 1229 q 671 1054 671 1126 z "},"Æ":{"ha":1450,"x_min":9,"x_max":1369,"o":"m 1369 155 l 1369 0 l 761 0 l 761 250 l 376 250 l 216 0 l 9 0 l 663 985 l 1369 985 l 1369 829 l 928 829 l 928 568 l 1328 568 l 1328 416 l 928 416 l 928 155 l 1369 155 m 761 848 l 468 393 l 761 393 l 761 848 z "},"Ç":{"ha":1053,"x_min":58,"x_max":1002,"o":"m 514 -146 l 465 -86 l 509 -18 q 187 136 317 -2 q 58 492 58 273 q 205 864 58 723 q 554 1006 353 1006 q 847 916 731 1006 q 997 686 961 827 l 840 633 q 745 789 817 730 q 554 848 672 848 q 326 755 421 848 q 229 492 229 663 q 325 233 229 327 q 555 139 421 139 q 746 201 670 139 q 848 355 821 263 l 1002 306 q 868 90 968 180 q 616 -17 766 -3 l 586 -65 q 684 -98 646 -67 q 721 -182 721 -130 q 679 -272 721 -236 q 550 -310 635 -310 q 456 -290 503 -310 q 390 -243 416 -274 l 447 -174 q 549 -222 496 -222 q 610 -180 610 -222 q 595 -150 610 -163 q 553 -139 580 -139 q 514 -146 534 -139 z "},"È":{"ha":808,"x_min":118,"x_max":726,"o":"m 539 1054 l 389 1054 l 191 1226 l 396 1226 l 539 1054 m 726 155 l 726 0 l 118 0 l 118 985 l 726 985 l 726 829 l 285 829 l 285 568 l 685 568 l 685 416 l 285 416 l 285 155 l 726 155 z "},"É":{"ha":808,"x_min":118,"x_max":726,"o":"m 452 1226 l 659 1226 l 461 1054 l 310 1054 l 452 1226 m 726 155 l 726 0 l 118 0 l 118 985 l 726 985 l 726 829 l 285 829 l 285 568 l 685 568 l 685 416 l 285 416 l 285 155 l 726 155 z "},"Ê":{"ha":808,"x_min":118,"x_max":726,"o":"m 416 1143 l 317 1054 l 168 1054 l 329 1226 l 509 1226 l 673 1054 l 521 1054 l 416 1143 m 726 155 l 726 0 l 118 0 l 118 985 l 726 985 l 726 829 l 285 829 l 285 568 l 685 568 l 685 416 l 285 416 l 285 155 l 726 155 z "},"Ë":{"ha":808,"x_min":118,"x_max":726,"o":"m 265 1048 q 200 1075 227 1048 q 174 1140 174 1101 q 200 1207 174 1181 q 265 1234 227 1234 q 332 1207 305 1234 q 358 1140 358 1181 q 332 1075 358 1101 q 265 1048 305 1048 m 582 1048 q 563 1048 582 1048 q 517 1075 543 1048 q 490 1140 490 1101 q 517 1207 490 1181 q 582 1234 543 1234 q 647 1207 621 1234 q 673 1140 673 1181 q 647 1075 673 1101 q 582 1048 621 1048 m 726 155 l 726 0 l 118 0 l 118 985 l 726 985 l 726 829 l 285 829 l 285 568 l 685 568 l 685 416 l 285 416 l 285 155 l 726 155 z "},"Ì":{"ha":406,"x_min":-65,"x_max":288,"o":"m 288 985 l 288 0 l 118 0 l 118 985 l 288 985 m 283 1054 l 134 1054 l -65 1226 l 140 1226 l 283 1054 z "},"Í":{"ha":406,"x_min":118,"x_max":471,"o":"m 288 985 l 288 0 l 118 0 l 118 985 l 288 985 m 264 1226 l 471 1226 l 273 1054 l 122 1054 l 264 1226 z "},"Î":{"ha":406,"x_min":-43,"x_max":463,"o":"m 288 985 l 288 0 l 118 0 l 118 985 l 288 985 m 205 1143 l 106 1054 l -43 1054 l 118 1226 l 297 1226 l 463 1054 l 310 1054 l 205 1143 z "},"Ï":{"ha":406,"x_min":-3,"x_max":411,"o":"m 22 1079 q -3 1140 -3 1104 q 22 1203 -3 1176 q 83 1227 47 1227 q 146 1203 119 1227 q 171 1140 171 1176 q 146 1079 171 1104 q 83 1053 119 1053 q 22 1079 47 1053 m 262 1079 q 237 1140 237 1104 q 262 1203 237 1176 q 325 1227 287 1227 q 386 1203 361 1227 q 411 1140 411 1176 q 386 1079 411 1104 q 325 1053 361 1053 q 262 1079 287 1053 m 288 985 l 288 0 l 118 0 l 118 985 l 288 985 z "},"Ð":{"ha":1027,"x_min":24,"x_max":965,"o":"m 485 0 l 138 0 l 138 443 l 24 443 l 24 572 l 138 572 l 138 985 l 486 985 q 831 852 694 985 q 965 490 965 722 q 829 131 965 262 q 485 0 694 0 m 304 443 l 304 153 l 479 153 q 704 240 614 153 q 791 490 791 326 q 704 745 791 655 q 481 832 616 832 l 304 832 l 304 572 l 486 572 l 486 443 l 304 443 z "},"Ñ":{"ha":1062,"x_min":118,"x_max":945,"o":"m 661 1231 l 764 1231 l 764 1198 q 725 1086 764 1125 q 627 1046 684 1046 q 525 1078 577 1046 l 511 1088 q 449 1111 474 1111 q 419 1100 432 1111 q 407 1065 407 1088 l 407 1051 l 302 1051 l 302 1082 q 342 1196 302 1156 q 441 1235 381 1235 q 545 1203 492 1235 l 558 1194 q 618 1171 600 1171 q 661 1217 661 1171 l 661 1231 m 945 985 l 945 0 l 771 0 l 285 746 l 285 0 l 118 0 l 118 985 l 330 985 l 778 286 l 778 985 l 945 985 z "},"Ò":{"ha":1118,"x_min":58,"x_max":1060,"o":"m 640 1054 l 490 1054 l 292 1226 l 497 1226 l 640 1054 m 558 848 q 326 755 423 848 q 229 493 229 663 q 326 232 229 325 q 558 138 425 138 q 791 232 693 138 q 889 493 889 326 q 791 755 889 662 q 558 848 694 848 m 131 218 q 58 493 58 336 q 131 768 58 650 q 314 946 201 886 q 558 1006 427 1006 q 803 946 690 1006 q 987 768 915 887 q 1060 493 1060 650 q 987 218 1060 336 q 803 39 913 97 q 558 -21 690 -21 q 314 39 427 -21 q 131 218 203 98 z "},"Ó":{"ha":1118,"x_min":58,"x_max":1060,"o":"m 612 1226 l 819 1226 l 623 1054 l 471 1054 l 612 1226 m 558 848 q 326 755 423 848 q 229 493 229 663 q 326 232 229 325 q 558 138 425 138 q 791 232 693 138 q 889 493 889 326 q 791 755 889 662 q 558 848 694 848 m 131 218 q 58 493 58 336 q 131 768 58 650 q 314 946 201 886 q 558 1006 427 1006 q 803 946 690 1006 q 987 768 915 887 q 1060 493 1060 650 q 987 218 1060 336 q 803 39 913 97 q 558 -21 690 -21 q 314 39 427 -21 q 131 218 203 98 z "},"Ô":{"ha":1118,"x_min":58,"x_max":1060,"o":"m 555 1143 l 456 1054 l 307 1054 l 468 1226 l 647 1226 l 812 1054 l 660 1054 l 555 1143 m 558 848 q 326 755 423 848 q 229 493 229 663 q 326 232 229 325 q 558 138 425 138 q 791 232 693 138 q 889 493 889 326 q 791 755 889 662 q 558 848 694 848 m 131 218 q 58 493 58 336 q 131 768 58 650 q 314 946 201 886 q 558 1006 427 1006 q 803 946 690 1006 q 987 768 915 887 q 1060 493 1060 650 q 987 218 1060 336 q 803 39 913 97 q 558 -21 690 -21 q 314 39 427 -21 q 131 218 203 98 z "},"Õ":{"ha":1118,"x_min":58,"x_max":1060,"o":"m 688 1232 l 790 1232 l 790 1200 q 751 1088 790 1126 q 653 1047 711 1047 q 551 1079 604 1047 l 538 1089 q 475 1112 500 1112 q 446 1101 458 1112 q 433 1067 433 1089 l 433 1053 l 329 1053 l 329 1083 q 368 1197 329 1158 q 468 1236 408 1236 q 571 1204 519 1236 l 585 1196 q 644 1173 626 1173 q 688 1218 688 1173 l 688 1232 m 558 848 q 326 755 423 848 q 229 493 229 663 q 326 232 229 325 q 558 138 425 138 q 791 232 693 138 q 889 493 889 326 q 791 755 889 662 q 558 848 694 848 m 131 218 q 58 493 58 336 q 131 768 58 650 q 314 946 201 886 q 558 1006 427 1006 q 803 946 690 1006 q 987 768 915 887 q 1060 493 1060 650 q 987 218 1060 336 q 803 39 913 97 q 558 -21 690 -21 q 314 39 427 -21 q 131 218 203 98 z "},"Ö":{"ha":1118,"x_min":58,"x_max":1060,"o":"m 335 1048 q 269 1075 296 1048 q 243 1140 243 1101 q 269 1207 243 1181 q 335 1234 296 1234 q 401 1207 375 1234 q 428 1140 428 1181 q 401 1075 428 1101 q 335 1048 375 1048 m 783 1048 q 718 1075 745 1048 q 692 1140 692 1101 q 718 1207 692 1181 q 783 1234 745 1234 q 850 1207 823 1234 q 876 1140 876 1181 q 850 1075 876 1101 q 783 1048 823 1048 m 558 848 q 326 755 423 848 q 229 493 229 663 q 326 232 229 325 q 558 138 425 138 q 791 232 693 138 q 889 493 889 326 q 791 755 889 662 q 558 848 694 848 m 131 218 q 58 493 58 336 q 131 768 58 650 q 314 946 201 886 q 558 1006 427 1006 q 803 946 690 1006 q 987 768 915 887 q 1060 493 1060 650 q 987 218 1060 336 q 803 39 913 97 q 558 -21 690 -21 q 314 39 427 -21 q 131 218 203 98 z "},"×":{"ha":761,"x_min":53,"x_max":708,"o":"m 708 167 l 612 71 l 380 309 l 149 71 l 53 167 l 286 406 l 54 643 l 150 739 l 380 501 l 611 739 l 707 643 l 475 406 l 708 167 z "},"Ø":{"ha":1118,"x_min":58,"x_max":1060,"o":"m 58 493 q 131 768 58 650 q 314 946 201 886 q 558 1006 427 1006 q 817 936 692 1006 l 916 1063 l 1023 979 l 924 851 q 1060 493 1060 707 q 987 218 1060 336 q 803 39 913 97 q 558 -21 690 -21 q 301 46 418 -21 l 207 -77 l 96 5 l 195 132 q 58 493 58 277 m 229 493 q 297 265 229 353 l 718 808 q 558 848 644 848 q 326 755 423 848 q 229 493 229 663 m 889 493 q 822 718 889 625 l 401 175 q 558 138 474 138 q 791 232 693 138 q 889 493 889 326 z "},"Ù":{"ha":948,"x_min":107,"x_max":842,"o":"m 576 1054 l 427 1054 l 228 1226 l 433 1226 l 576 1054 m 739 75 q 473 -21 635 -21 q 210 75 312 -21 q 107 343 107 172 l 107 985 l 272 985 l 272 353 q 326 195 272 251 q 473 138 379 138 q 623 193 571 138 q 675 353 675 250 l 675 985 l 842 985 l 842 343 q 739 75 842 172 z "},"Ú":{"ha":948,"x_min":107,"x_max":842,"o":"m 505 1226 l 713 1226 l 515 1054 l 364 1054 l 505 1226 m 739 75 q 473 -21 635 -21 q 210 75 312 -21 q 107 343 107 172 l 107 985 l 272 985 l 272 353 q 326 195 272 251 q 473 138 379 138 q 623 193 571 138 q 675 353 675 250 l 675 985 l 842 985 l 842 343 q 739 75 842 172 z "},"Û":{"ha":948,"x_min":107,"x_max":842,"o":"m 471 1143 l 371 1054 l 222 1054 l 383 1226 l 562 1226 l 728 1054 l 575 1054 l 471 1143 m 739 75 q 473 -21 635 -21 q 210 75 312 -21 q 107 343 107 172 l 107 985 l 272 985 l 272 353 q 326 195 272 251 q 473 138 379 138 q 623 193 571 138 q 675 353 675 250 l 675 985 l 842 985 l 842 343 q 739 75 842 172 z "},"Ü":{"ha":948,"x_min":107,"x_max":842,"o":"m 245 1075 q 220 1140 220 1101 q 245 1207 220 1181 q 311 1234 272 1234 q 376 1207 350 1234 q 403 1140 403 1181 q 376 1075 403 1101 q 311 1048 350 1048 q 245 1075 272 1048 m 639 1048 q 620 1048 639 1048 q 574 1075 600 1048 q 547 1140 547 1101 q 574 1207 547 1181 q 639 1234 600 1234 q 704 1207 677 1234 q 730 1140 730 1181 q 704 1075 730 1101 q 639 1048 677 1048 m 739 75 q 473 -21 635 -21 q 210 75 312 -21 q 107 343 107 172 l 107 985 l 272 985 l 272 353 q 326 195 272 251 q 473 138 379 138 q 623 193 571 138 q 675 353 675 250 l 675 985 l 842 985 l 842 343 q 739 75 842 172 z "},"Ý":{"ha":886,"x_min":14,"x_max":872,"o":"m 358 0 l 358 416 l 14 985 l 211 985 l 447 572 l 685 985 l 872 985 l 525 416 l 525 0 l 358 0 m 479 1226 l 686 1226 l 489 1054 l 338 1054 l 479 1226 z "},"Þ":{"ha":831,"x_min":118,"x_max":798,"o":"m 285 656 l 285 349 l 458 349 q 583 390 538 349 q 628 500 628 431 q 583 614 628 571 q 458 656 537 656 l 285 656 m 476 204 l 285 204 l 285 0 l 118 0 l 118 985 l 285 985 l 285 800 l 475 800 q 705 715 614 800 q 798 501 798 629 q 707 289 798 376 q 476 204 616 204 z "},"ß":{"ha":809,"x_min":104,"x_max":782,"o":"m 529 476 q 543 444 531 454 q 586 419 557 430 l 632 399 q 741 315 699 370 q 782 189 782 260 q 721 45 782 110 q 545 -21 657 -21 q 372 41 431 -21 q 313 176 315 101 l 446 207 q 471 138 448 169 q 545 106 494 106 q 607 127 585 106 q 629 178 629 150 q 559 265 629 233 l 515 285 q 446 321 469 305 q 392 378 417 338 q 367 465 367 415 q 457 623 367 564 l 492 646 q 566 753 566 692 q 529 832 566 800 q 424 864 491 864 q 310 814 356 864 q 262 669 262 764 l 262 0 l 104 0 l 104 679 q 196 920 104 834 q 424 1006 288 1006 q 642 935 558 1006 q 725 760 725 863 q 603 553 725 631 l 570 532 q 529 476 529 508 z "},"à":{"ha":739,"x_min":62,"x_max":657,"o":"m 62 183 q 119 322 62 269 q 267 387 174 373 l 440 414 q 490 463 490 420 q 458 538 490 508 q 363 566 427 566 q 265 532 301 566 q 224 443 230 496 l 77 476 q 164 633 87 570 q 361 697 241 697 q 579 627 509 697 q 648 444 648 555 l 648 109 q 657 0 648 45 l 507 0 q 500 86 500 25 q 292 -21 432 -21 q 126 40 189 -21 q 62 183 62 100 m 322 106 q 444 147 397 106 q 490 281 490 187 l 490 311 l 314 285 q 224 193 224 271 q 250 132 224 157 q 322 106 277 106 m 452 761 l 319 761 l 136 966 l 329 966 l 452 761 z "},"á":{"ha":739,"x_min":62,"x_max":657,"o":"m 62 183 q 119 322 62 269 q 267 387 174 373 l 440 414 q 490 463 490 420 q 458 538 490 508 q 363 566 427 566 q 265 532 301 566 q 224 443 230 496 l 77 476 q 164 633 87 570 q 361 697 241 697 q 579 627 509 697 q 648 444 648 555 l 648 109 q 657 0 648 45 l 507 0 q 500 86 500 25 q 292 -21 432 -21 q 126 40 189 -21 q 62 183 62 100 m 322 106 q 444 147 397 106 q 490 281 490 187 l 490 311 l 314 285 q 224 193 224 271 q 250 132 224 157 q 322 106 277 106 m 396 966 l 586 966 l 404 761 l 272 761 l 396 966 z "},"â":{"ha":739,"x_min":62,"x_max":657,"o":"m 62 183 q 119 322 62 269 q 267 387 174 373 l 440 414 q 490 463 490 420 q 458 538 490 508 q 363 566 427 566 q 265 532 301 566 q 224 443 230 496 l 77 476 q 164 633 87 570 q 361 697 241 697 q 579 627 509 697 q 648 444 648 555 l 648 109 q 657 0 648 45 l 507 0 q 500 86 500 25 q 292 -21 432 -21 q 126 40 189 -21 q 62 183 62 100 m 322 106 q 444 147 397 106 q 490 281 490 187 l 490 311 l 314 285 q 224 193 224 271 q 250 132 224 157 q 322 106 277 106 m 366 869 l 268 762 l 134 762 l 282 961 l 450 961 l 600 762 l 463 762 l 366 869 z "},"ã":{"ha":739,"x_min":62,"x_max":657,"o":"m 62 183 q 119 322 62 269 q 267 387 174 373 l 440 414 q 490 463 490 420 q 458 538 490 508 q 363 566 427 566 q 265 532 301 566 q 224 443 230 496 l 77 476 q 164 633 87 570 q 361 697 241 697 q 579 627 509 697 q 648 444 648 555 l 648 109 q 657 0 648 45 l 507 0 q 500 86 500 25 q 292 -21 432 -21 q 126 40 189 -21 q 62 183 62 100 m 322 106 q 444 147 397 106 q 490 281 490 187 l 490 311 l 314 285 q 224 193 224 271 q 250 132 224 157 q 322 106 277 106 m 248 772 l 142 772 l 140 798 q 180 917 140 875 q 283 957 220 957 q 380 926 330 957 l 395 918 q 454 895 435 895 q 497 956 497 895 l 603 956 l 603 932 q 564 812 603 854 q 461 770 525 770 q 363 802 415 770 l 349 810 q 289 832 313 832 q 248 772 248 832 z "},"ä":{"ha":739,"x_min":62,"x_max":657,"o":"m 62 183 q 119 322 62 269 q 267 387 174 373 l 440 414 q 490 463 490 420 q 458 538 490 508 q 363 566 427 566 q 265 532 301 566 q 224 443 230 496 l 77 476 q 164 633 87 570 q 361 697 241 697 q 579 627 509 697 q 648 444 648 555 l 648 109 q 657 0 648 45 l 507 0 q 500 86 500 25 q 292 -21 432 -21 q 126 40 189 -21 q 62 183 62 100 m 322 106 q 444 147 397 106 q 490 281 490 187 l 490 311 l 314 285 q 224 193 224 271 q 250 132 224 157 q 322 106 277 106 m 138 868 q 164 932 138 905 q 227 958 189 958 q 292 932 265 958 q 318 868 318 905 q 292 804 318 829 q 227 778 265 778 q 164 804 189 778 q 138 868 138 829 m 415 868 q 441 932 415 905 q 504 958 466 958 q 568 932 542 958 q 595 868 595 905 q 568 804 595 829 q 504 778 542 778 q 441 804 466 778 q 415 868 415 829 z "},"å":{"ha":739,"x_min":62,"x_max":657,"o":"m 62 183 q 119 322 62 269 q 267 387 174 373 l 440 414 q 490 463 490 420 q 458 538 490 508 q 363 566 427 566 q 265 532 301 566 q 224 443 230 496 l 77 476 q 164 633 87 570 q 361 697 241 697 q 579 627 509 697 q 648 444 648 555 l 648 109 q 657 0 648 45 l 507 0 q 500 86 500 25 q 292 -21 432 -21 q 126 40 189 -21 q 62 183 62 100 m 322 106 q 444 147 397 106 q 490 281 490 187 l 490 311 l 314 285 q 224 193 224 271 q 250 132 224 157 q 322 106 277 106 m 472 1010 q 518 900 518 966 q 472 791 518 836 q 359 747 424 747 q 250 791 296 747 q 203 900 203 835 q 250 1010 203 966 q 359 1054 296 1054 q 472 1010 424 1054 m 421 900 q 404 946 421 927 q 358 962 386 962 q 317 945 332 962 q 298 900 298 926 q 317 857 298 873 q 358 839 333 839 q 403 857 385 839 q 421 900 421 873 z "},"æ":{"ha":1211,"x_min":62,"x_max":1158,"o":"m 1015 237 l 1152 193 q 1040 40 1124 100 q 843 -21 956 -21 q 690 14 760 -21 q 572 111 621 48 q 311 -21 484 -21 q 129 39 195 -21 q 62 183 62 98 q 119 322 62 269 q 267 387 174 373 l 450 414 q 501 463 501 420 q 467 538 501 507 q 367 567 431 567 q 264 532 303 567 q 218 447 224 496 l 77 476 q 170 633 85 570 q 368 697 252 697 q 602 599 526 697 q 831 697 696 697 q 1072 603 984 697 q 1158 346 1158 509 q 1156 294 1158 328 l 659 294 q 715 168 661 217 q 844 118 768 118 q 1015 237 973 118 m 328 106 q 450 147 399 106 q 501 279 501 188 l 501 311 l 314 285 q 224 191 224 273 q 252 131 224 157 q 328 106 279 106 m 663 412 l 997 412 q 951 519 995 476 q 829 562 909 562 q 713 518 757 562 q 663 412 667 472 z "},"ç":{"ha":751,"x_min":52,"x_max":713,"o":"m 354 -147 l 306 -87 l 351 -17 q 136 100 222 -1 q 52 339 52 197 q 151 596 52 494 q 397 697 248 697 q 604 632 522 697 q 707 475 683 569 l 562 422 q 510 513 547 477 q 399 549 470 549 q 267 493 320 549 q 212 339 212 437 q 268 183 212 239 q 401 126 323 126 q 515 165 472 126 q 571 252 556 203 l 713 200 q 624 60 686 119 q 458 -17 559 -3 l 427 -66 q 524 -100 486 -68 q 561 -183 561 -131 q 519 -273 561 -238 q 390 -311 475 -311 q 296 -292 342 -311 q 231 -244 257 -275 l 288 -175 q 389 -224 336 -224 q 450 -182 450 -224 q 435 -151 450 -165 q 393 -140 420 -140 q 354 -147 374 -140 z "},"è":{"ha":761,"x_min":52,"x_max":711,"o":"m 216 412 l 549 412 q 504 519 547 475 q 382 562 461 562 q 265 518 309 562 q 216 412 220 471 m 567 236 l 703 193 q 595 40 673 99 q 397 -21 512 -21 q 153 78 254 -21 q 52 342 52 175 q 150 597 52 497 q 380 697 248 697 q 624 603 536 697 q 711 346 711 507 q 707 294 711 304 l 212 294 q 269 168 214 219 q 397 118 321 118 q 567 236 528 118 m 471 761 l 339 761 l 155 966 l 349 966 l 471 761 z "},"é":{"ha":761,"x_min":52,"x_max":711,"o":"m 432 966 l 623 966 l 440 761 l 309 761 l 432 966 m 216 412 l 549 412 q 504 519 547 475 q 382 562 461 562 q 265 518 309 562 q 216 412 220 471 m 567 236 l 703 193 q 595 40 673 99 q 397 -21 512 -21 q 153 78 254 -21 q 52 342 52 175 q 150 597 52 497 q 380 697 248 697 q 624 603 536 697 q 711 346 711 507 q 707 294 711 304 l 212 294 q 269 168 214 219 q 397 118 321 118 q 567 236 528 118 z "},"ê":{"ha":761,"x_min":52,"x_max":711,"o":"m 389 869 l 292 762 l 157 762 l 306 961 l 473 961 l 624 762 l 486 762 l 389 869 m 216 412 l 549 412 q 504 519 547 475 q 382 562 461 562 q 265 518 309 562 q 216 412 220 471 m 567 236 l 703 193 q 595 40 673 99 q 397 -21 512 -21 q 153 78 254 -21 q 52 342 52 175 q 150 597 52 497 q 380 697 248 697 q 624 603 536 697 q 711 346 711 507 q 707 294 711 304 l 212 294 q 269 168 214 219 q 397 118 321 118 q 567 236 528 118 z "},"ë":{"ha":761,"x_min":52,"x_max":711,"o":"m 160 868 q 186 932 160 906 q 249 958 210 958 q 314 932 288 958 q 340 868 340 905 q 314 804 340 829 q 249 778 288 778 q 186 804 210 778 q 160 868 160 828 m 437 868 q 464 932 437 905 q 526 958 488 958 q 590 932 564 958 q 616 868 616 905 q 590 804 616 829 q 526 778 564 778 q 464 804 488 778 q 437 868 437 829 m 216 412 l 549 412 q 504 519 547 475 q 382 562 461 562 q 265 518 309 562 q 216 412 220 471 m 567 236 l 703 193 q 595 40 673 99 q 397 -21 512 -21 q 153 78 254 -21 q 52 342 52 175 q 150 597 52 497 q 380 697 248 697 q 624 603 536 697 q 711 346 711 507 q 707 294 711 304 l 212 294 q 269 168 214 219 q 397 118 321 118 q 567 236 528 118 z "},"ì":{"ha":368,"x_min":-54,"x_max":264,"o":"m 264 676 l 264 0 l 104 0 l 104 676 l 264 676 m 261 761 l 129 761 l -54 966 l 139 966 l 261 761 z "},"í":{"ha":368,"x_min":104,"x_max":427,"o":"m 236 966 l 427 966 l 244 761 l 113 761 l 236 966 m 264 676 l 264 0 l 104 0 l 104 676 l 264 676 z "},"î":{"ha":368,"x_min":-49,"x_max":418,"o":"m 183 869 l 86 762 l -49 762 l 100 961 l 268 961 l 418 762 l 281 762 l 183 869 m 264 676 l 264 0 l 104 0 l 104 676 l 264 676 z "},"ï":{"ha":368,"x_min":-14,"x_max":382,"o":"m 11 808 q -14 868 -14 831 q 11 929 -14 905 q 71 954 34 954 q 132 929 107 954 q 157 868 157 905 q 132 808 157 831 q 71 783 107 783 q 11 808 34 783 m 236 808 q 211 868 211 831 q 236 929 211 904 q 296 954 259 954 q 357 929 332 954 q 382 868 382 904 q 357 808 382 831 q 296 783 332 783 q 236 808 259 783 m 264 676 l 264 0 l 104 0 l 104 676 l 264 676 z "},"ð":{"ha":800,"x_min":52,"x_max":750,"o":"m 643 975 l 688 873 l 579 825 q 750 375 750 648 q 657 93 750 203 q 400 -20 564 -20 q 150 77 248 -20 q 52 317 52 173 q 150 555 52 465 q 379 643 248 643 q 555 582 503 643 q 437 761 519 685 l 250 676 l 207 777 l 335 835 q 178 899 281 867 l 228 1022 q 488 904 370 987 l 643 975 m 400 123 q 533 176 478 123 q 587 318 587 229 q 533 461 587 409 q 400 513 479 513 q 267 461 322 513 q 211 318 211 410 q 267 176 211 228 q 400 123 323 123 z "},"ñ":{"ha":797,"x_min":104,"x_max":705,"o":"m 265 390 l 265 0 l 104 0 l 104 676 l 261 676 l 261 586 q 347 669 292 642 q 461 696 397 696 q 643 621 581 696 q 705 428 705 545 l 705 0 l 545 0 l 545 400 q 511 510 545 469 q 406 550 477 550 q 302 505 339 550 q 265 390 265 460 m 290 772 l 184 772 l 183 798 q 224 917 183 874 q 326 957 264 957 q 424 926 374 957 l 437 918 q 497 895 477 895 q 541 956 541 895 l 646 956 l 646 932 q 607 812 646 853 q 504 770 568 770 q 406 802 458 770 l 392 810 q 332 832 356 832 q 290 772 290 832 z "},"ò":{"ha":804,"x_min":52,"x_max":753,"o":"m 268 182 q 401 123 322 123 q 536 180 479 123 q 590 339 590 236 q 536 496 590 440 q 401 551 481 551 q 268 496 321 551 q 212 339 212 440 q 268 182 212 237 m 401 697 q 654 596 555 697 q 753 339 753 494 q 654 82 753 184 q 401 -21 553 -21 q 151 82 250 -21 q 52 339 52 184 q 151 596 52 494 q 401 697 248 697 m 475 761 l 343 761 l 160 966 l 353 966 l 475 761 z "},"ó":{"ha":804,"x_min":52,"x_max":753,"o":"m 446 966 l 636 966 l 454 761 l 322 761 l 446 966 m 268 182 q 401 123 322 123 q 536 180 479 123 q 590 339 590 236 q 536 496 590 440 q 401 551 481 551 q 268 496 321 551 q 212 339 212 440 q 268 182 212 237 m 401 697 q 654 596 555 697 q 753 339 753 494 q 654 82 753 184 q 401 -21 553 -21 q 151 82 250 -21 q 52 339 52 184 q 151 596 52 494 q 401 697 248 697 z "},"ô":{"ha":804,"x_min":52,"x_max":753,"o":"m 403 869 l 306 762 l 171 762 l 319 961 l 488 961 l 637 762 l 500 762 l 403 869 m 268 182 q 401 123 322 123 q 536 180 479 123 q 590 339 590 236 q 536 496 590 440 q 401 551 481 551 q 268 496 321 551 q 212 339 212 440 q 268 182 212 237 m 401 697 q 654 596 555 697 q 753 339 753 494 q 654 82 753 184 q 401 -21 553 -21 q 151 82 250 -21 q 52 339 52 184 q 151 596 52 494 q 401 697 248 697 z "},"õ":{"ha":804,"x_min":52,"x_max":753,"o":"m 268 182 q 401 123 322 123 q 536 180 479 123 q 590 339 590 236 q 536 496 590 440 q 401 551 481 551 q 268 496 321 551 q 212 339 212 440 q 268 182 212 237 m 401 697 q 654 596 555 697 q 753 339 753 494 q 654 82 753 184 q 401 -21 553 -21 q 151 82 250 -21 q 52 339 52 184 q 151 596 52 494 q 401 697 248 697 m 281 772 l 175 772 l 174 798 q 214 917 174 875 q 317 957 254 957 q 414 926 363 957 l 428 918 q 488 895 468 895 q 530 956 530 895 l 636 956 l 636 932 q 597 812 636 853 q 494 770 559 770 q 396 802 448 770 l 382 810 q 322 832 346 832 q 281 772 281 832 z "},"ö":{"ha":804,"x_min":52,"x_max":753,"o":"m 172 868 q 199 932 172 905 q 261 958 223 958 q 326 932 300 958 q 353 868 353 905 q 326 804 353 829 q 261 778 300 778 q 199 804 223 778 q 172 868 172 829 m 450 868 q 476 932 450 906 q 539 958 500 958 q 603 932 576 958 q 629 868 629 905 q 603 804 629 829 q 539 778 576 778 q 476 804 500 778 q 450 868 450 828 m 268 182 q 401 123 322 123 q 536 180 479 123 q 590 339 590 236 q 536 496 590 440 q 401 551 481 551 q 268 496 321 551 q 212 339 212 440 q 268 182 212 237 m 401 697 q 654 596 555 697 q 753 339 753 494 q 654 82 753 184 q 401 -21 553 -21 q 151 82 250 -21 q 52 339 52 184 q 151 596 52 494 q 401 697 248 697 z "},"÷":{"ha":802,"x_min":72,"x_max":730,"o":"m 329 85 q 298 154 298 113 q 329 224 298 195 q 399 253 358 253 q 469 224 440 253 q 498 154 498 195 q 469 85 498 114 q 399 54 441 54 q 329 85 357 54 m 329 586 q 298 656 298 614 q 329 726 298 696 q 399 755 358 755 q 469 726 440 755 q 498 656 498 695 q 469 586 498 615 q 399 555 441 555 q 329 586 357 555 m 730 336 l 72 336 l 72 473 l 730 473 l 730 336 z "},"ø":{"ha":804,"x_min":52,"x_max":753,"o":"m 401 697 q 581 652 500 697 l 653 742 l 739 671 l 667 581 q 753 339 753 480 q 654 82 753 184 q 401 -21 553 -21 q 227 24 306 -21 l 157 -64 l 69 7 l 139 94 q 52 339 52 192 q 151 596 52 494 q 401 697 248 697 m 212 339 q 239 221 212 269 l 486 532 q 401 551 441 551 q 268 496 321 551 q 212 339 212 440 m 401 123 q 536 180 479 123 q 590 339 590 236 q 566 453 590 405 l 319 142 q 401 123 355 123 z "},"ù":{"ha":801,"x_min":97,"x_max":704,"o":"m 545 75 q 468 5 521 31 q 353 -20 415 -20 q 167 57 235 -20 q 97 250 97 135 l 97 676 l 258 676 l 258 279 q 292 168 258 212 q 395 125 325 125 q 500 167 462 125 q 536 277 536 210 l 536 676 l 697 676 l 697 123 q 704 0 697 69 l 550 0 q 545 75 545 28 m 489 761 l 357 761 l 174 966 l 367 966 l 489 761 z "},"ú":{"ha":801,"x_min":97,"x_max":704,"o":"m 414 966 l 604 966 l 422 761 l 290 761 l 414 966 m 545 75 q 468 5 521 31 q 353 -20 415 -20 q 167 57 235 -20 q 97 250 97 135 l 97 676 l 258 676 l 258 279 q 292 168 258 212 q 395 125 325 125 q 500 167 462 125 q 536 277 536 210 l 536 676 l 697 676 l 697 123 q 704 0 697 69 l 550 0 q 545 75 545 28 z "},"û":{"ha":801,"x_min":97,"x_max":704,"o":"m 397 869 l 300 762 l 165 762 l 314 961 l 482 961 l 632 762 l 494 762 l 397 869 m 545 75 q 468 5 521 31 q 353 -20 415 -20 q 167 57 235 -20 q 97 250 97 135 l 97 676 l 258 676 l 258 279 q 292 168 258 212 q 395 125 325 125 q 500 167 462 125 q 536 277 536 210 l 536 676 l 697 676 l 697 123 q 704 0 697 69 l 550 0 q 545 75 545 28 z "},"ü":{"ha":801,"x_min":97,"x_max":704,"o":"m 170 868 q 196 932 170 905 q 258 958 220 958 q 323 932 297 958 q 350 868 350 905 q 323 804 350 829 q 258 778 297 778 q 196 804 220 778 q 170 868 170 829 m 447 868 q 473 932 447 905 q 536 958 498 958 q 600 932 574 958 q 627 868 627 905 q 600 804 627 829 q 536 778 574 778 q 473 804 498 778 q 447 868 447 829 m 545 75 q 468 5 521 31 q 353 -20 415 -20 q 167 57 235 -20 q 97 250 97 135 l 97 676 l 258 676 l 258 279 q 292 168 258 212 q 395 125 325 125 q 500 167 462 125 q 536 277 536 210 l 536 676 l 697 676 l 697 123 q 704 0 697 69 l 550 0 q 545 75 545 28 z "},"ý":{"ha":754,"x_min":11,"x_max":741,"o":"m 741 676 l 310 -273 l 138 -273 l 300 81 l 11 676 l 193 676 l 387 249 l 570 676 l 741 676 m 408 966 l 599 966 l 416 761 l 285 761 l 408 966 z "},"þ":{"ha":838,"x_min":104,"x_max":787,"o":"m 264 77 l 264 -264 l 104 -264 l 104 1006 l 265 1006 l 265 593 q 350 664 295 637 q 475 692 404 692 q 704 593 619 692 q 787 339 787 493 q 700 85 787 184 q 469 -17 612 -17 q 346 9 398 -17 q 264 77 291 37 m 627 339 q 576 492 627 433 q 444 549 526 549 q 314 492 365 549 q 262 339 262 434 q 314 184 262 242 q 444 126 364 126 q 576 184 524 126 q 627 339 627 243 z "},"ÿ":{"ha":754,"x_min":11,"x_max":741,"o":"m 741 676 l 310 -273 l 138 -273 l 300 81 l 11 676 l 193 676 l 387 249 l 570 676 l 741 676 m 150 868 q 176 932 150 905 q 239 958 201 958 q 304 932 278 958 q 330 868 330 906 q 304 804 330 828 q 239 778 278 778 q 176 804 201 778 q 150 868 150 829 m 428 868 q 454 932 428 905 q 517 958 479 958 q 581 932 554 958 q 607 868 607 905 q 581 804 607 829 q 517 778 554 778 q 454 804 479 778 q 428 868 428 829 z "},"ı":{"ha":368,"x_min":104,"x_max":264,"o":"m 264 676 l 264 0 l 104 0 l 104 676 l 264 676 z "},"Ł":{"ha":794,"x_min":11,"x_max":760,"o":"m 760 158 l 760 0 l 142 0 l 142 379 l 11 321 l 11 460 l 142 518 l 142 985 l 309 985 l 309 593 l 529 692 l 529 553 l 309 454 l 309 158 l 760 158 z "},"ł":{"ha":429,"x_min":11,"x_max":418,"o":"m 293 439 l 293 0 l 132 0 l 132 367 l 11 313 l 11 453 l 132 507 l 132 1006 l 293 1006 l 293 579 l 418 635 l 418 496 l 293 439 z "},"Œ":{"ha":1577,"x_min":58,"x_max":1497,"o":"m 1497 155 l 1497 0 l 889 0 l 889 113 q 558 -21 760 -21 q 314 39 427 -21 q 131 218 203 98 q 58 493 58 336 q 131 768 58 650 q 314 946 201 886 q 558 1006 427 1006 q 889 871 762 1006 l 889 985 l 1496 985 l 1496 829 l 1055 829 l 1055 568 l 1455 568 l 1455 416 l 1055 416 l 1055 155 l 1497 155 m 558 848 q 326 755 423 848 q 229 493 229 663 q 326 232 229 325 q 558 138 425 138 q 791 232 693 138 q 889 493 889 326 q 791 755 889 662 q 558 848 694 848 z "},"œ":{"ha":1301,"x_min":52,"x_max":1251,"o":"m 401 697 q 671 576 569 697 q 783 665 715 631 q 921 697 848 697 q 1164 603 1076 697 q 1251 346 1251 507 q 1247 294 1251 302 l 753 294 q 810 168 755 219 q 937 118 862 118 q 1107 236 1067 118 l 1243 193 q 1135 40 1214 100 q 937 -21 1052 -21 q 671 102 772 -21 q 401 -21 571 -21 q 151 82 250 -21 q 52 339 52 184 q 151 596 52 494 q 401 697 248 697 m 268 182 q 401 123 322 123 q 536 180 479 123 q 590 339 590 236 q 536 496 590 440 q 401 551 481 551 q 268 496 321 551 q 212 339 212 440 q 268 182 212 237 m 757 412 l 1089 412 q 1044 519 1087 475 q 922 562 1002 562 q 806 518 850 562 q 757 412 761 471 z "},"Š":{"ha":831,"x_min":47,"x_max":777,"o":"m 338 1054 l 176 1226 l 328 1226 l 428 1136 l 532 1226 l 682 1226 l 517 1054 l 338 1054 m 765 754 l 615 707 q 558 811 604 765 q 422 859 511 859 q 301 817 349 859 q 253 717 253 774 q 368 590 253 616 l 510 561 q 707 460 640 535 q 777 278 777 382 q 684 68 777 155 q 428 -21 591 -21 q 157 71 254 -21 q 47 282 60 159 l 203 326 q 269 186 211 242 q 428 129 328 129 q 561 168 513 129 q 607 265 607 206 q 572 350 607 315 q 475 399 538 385 l 336 428 q 154 524 220 452 q 86 704 86 595 q 184 917 86 827 q 421 1006 281 1006 q 661 930 578 1006 q 765 754 745 853 z "},"š":{"ha":634,"x_min":45,"x_max":579,"o":"m 232 762 l 85 964 l 221 964 l 318 857 l 415 964 l 551 964 l 404 762 l 232 762 m 45 183 l 184 222 q 225 140 189 175 q 322 107 260 107 q 397 129 372 107 q 424 184 424 151 q 345 260 424 243 l 244 282 q 110 354 160 300 q 62 479 62 406 q 135 633 62 570 q 311 697 208 697 q 429 677 374 697 q 510 628 481 659 q 553 567 540 594 q 572 509 569 533 l 436 469 q 401 541 430 510 q 311 571 371 571 q 241 549 268 571 q 214 493 214 525 q 282 422 214 437 l 385 401 q 529 326 478 381 q 579 196 579 272 q 513 46 579 110 q 323 -21 444 -21 q 200 0 256 -21 q 114 54 146 20 q 65 119 81 87 q 45 183 47 151 z "},"Ÿ":{"ha":886,"x_min":14,"x_max":872,"o":"m 279 1048 q 214 1075 240 1048 q 187 1140 187 1101 q 214 1207 187 1181 q 279 1234 240 1234 q 345 1207 318 1234 q 371 1140 371 1181 q 345 1075 371 1101 q 279 1048 318 1048 m 611 1048 q 546 1075 572 1048 q 519 1140 519 1101 q 546 1207 519 1181 q 611 1234 572 1234 q 677 1207 651 1234 q 704 1140 704 1181 q 677 1075 704 1101 q 611 1048 651 1048 m 358 0 l 358 416 l 14 985 l 211 985 l 447 572 l 685 985 l 872 985 l 525 416 l 525 0 l 358 0 z "},"Ž":{"ha":883,"x_min":58,"x_max":827,"o":"m 359 1054 l 199 1226 l 350 1226 l 450 1136 l 554 1226 l 704 1226 l 539 1054 l 359 1054 m 827 158 l 827 0 l 58 0 l 58 164 l 604 828 l 74 828 l 74 985 l 819 985 l 819 827 l 267 158 l 827 158 z "},"ž":{"ha":658,"x_min":53,"x_max":606,"o":"m 249 762 l 102 964 l 237 964 l 335 857 l 432 964 l 568 964 l 421 762 l 249 762 m 606 142 l 606 0 l 53 0 l 53 140 l 396 534 l 60 534 l 60 676 l 599 676 l 599 541 l 252 142 l 606 142 z "},"ƒ":{"ha":691,"x_min":-41,"x_max":685,"o":"m 167 33 l 268 539 l 125 539 l 125 676 l 296 676 l 325 817 q 415 975 349 926 q 571 1028 486 1028 q 685 1011 629 1028 l 685 871 q 606 882 647 882 q 481 765 504 882 l 463 676 l 632 676 l 632 539 l 435 539 l 322 -18 q 233 -176 302 -125 q 77 -229 163 -229 q -41 -212 17 -229 l -41 -72 q 43 -82 -1 -82 q 167 33 143 -82 z "}}}
